<svg width="24" height="25" viewBox="0 0 24 25" fill="none" xmlns="http://www.w3.org/2000/svg">
<path d="M19.5459 18.4541C19.7572 18.6654 19.876 18.9521 19.876 19.251C19.876 19.5499 19.7572 19.8365 19.5459 20.0479C19.3346 20.2592 19.0479 20.3779 18.749 20.3779C18.4501 20.3779 18.1635 20.2592 17.9521 20.0479L12 14.0938L6.0459 20.046C5.83455 20.2573 5.54791 20.3761 5.24902 20.3761C4.95014 20.3761 4.66349 20.2573 4.45215 20.046C4.2408 19.8346 4.12207 19.548 4.12207 19.2491C4.12207 18.9502 4.2408 18.6636 4.45215 18.4522L10.4062 12.5L4.45402 6.54598C4.24268 6.33464 4.12395 6.04799 4.12395 5.7491C4.12395 5.45022 4.24268 5.16357 4.45402 4.95223C4.66537 4.74089 4.95201 4.62215 5.2509 4.62215C5.54978 4.62215 5.83643 4.74089 6.04777 4.95223L12 10.9063L17.954 4.95129C18.1654 4.73995 18.452 4.62122 18.7509 4.62122C19.0498 4.62122 19.3364 4.73995 19.5478 4.95129C19.7591 5.16264 19.8778 5.44928 19.8778 5.74817C19.8778 6.04705 19.7591 6.3337 19.5478 6.54504L13.5937 12.5L19.5459 18.4541Z" fill="black" fill-opacity="0.4"/>
</svg>
